<?xml version="1.0" encoding="UTF-8"?>
<svg id="Layer_2" data-name="Layer 2" xmlns="http://www.w3.org/2000/svg" viewBox="0 0 476.94 101.64">
  <defs>
    <style>
      .cls-1 {
        fill: #fff;
      }
    </style>
  </defs>
  <g id="Layer_1-2" data-name="Layer 1">
    <g>
      <g>
        <polygon class="cls-1" points="2.7 67.74 46.57 67.74 46.57 54.49 17.5 54.49 17.5 40.26 46.57 40.26 46.57 27 17.5 27 17.5 13.26 46.57 13.26 46.57 0 2.7 0 2.7 67.74"/>
        <path class="cls-1" d="m161.13,0v38.81c0,10.74-5.51,16.26-14.61,16.26s-14.61-5.71-14.61-16.74V0h-14.91v38.71c0,19.93,11.13,30.09,29.32,30.09s29.71-10.06,29.71-30.58V0h-14.91Z"/>
        <path class="cls-1" d="m97.34,32.32c4.84-2.71,8.9-6.97,8.9-14.61v-.2c0-4.64-1.55-8.42-4.64-11.51-3.35-3.35-8.38-5.4-14.7-5.88-.98-.08-1.98-.12-3.01-.12h-26.57v67.74h27.35c.76,0,1.5-.03,2.24-.06,14.02-.59,23.12-6.75,23.12-18.52v-.19c0-9.09-4.84-13.64-12.68-16.65Zm-25.51-19.26h9.83c2.07,0,3.8.3,5.24.82,2.93,1.07,4.53,3.16,4.53,6.15v.2c0,3.17-1.66,5.18-4.53,6.24-1.68.62-3.78.92-6.21.92h-8.86v-14.32Zm23.38,34.26c0,4.43-3.08,6.75-8.31,7.24-.71.07-1.46.11-2.24.11h-12.83v-14.9h12.35c.98,0,1.88.05,2.72.14,5.73.61,8.31,3.25,8.31,7.21v.2Z"/>
      </g>
      <g>
        <path class="cls-1" d="m439.61,86.24h5.22c4.73,0,8,3.25,8,7.48v.04c0,4.24-3.27,7.52-8,7.52h-5.22v-15.05Zm1.7,1.57v11.91h3.53c3.81,0,6.24-2.58,6.24-5.91v-.04c0-3.33-2.43-5.96-6.24-5.96h-3.53Z"/>
        <path class="cls-1" d="m428.19,86.13h1.59l6.86,15.16h-1.83l-1.76-3.98h-8.19l-1.78,3.98h-1.74l6.86-15.16Zm4.19,9.63l-3.42-7.65-3.44,7.65h6.86Z"/>
        <path class="cls-1" d="m407.08,86.24h6.47c1.85,0,3.33.56,4.28,1.5.73.73,1.16,1.78,1.16,2.97v.04c0,2.49-1.72,3.96-4.09,4.39l4.62,6.15h-2.09l-4.36-5.85h-4.3v5.85h-1.7v-15.05Zm6.32,7.68c2.26,0,3.87-1.16,3.87-3.1v-.04c0-1.85-1.42-2.97-3.85-2.97h-4.64v6.11h4.62Z"/>
        <path class="cls-1" d="m388.14,93.81v-.04c0-4.15,3.12-7.78,7.7-7.78s7.65,3.59,7.65,7.74v.04c0,4.15-3.12,7.78-7.7,7.78s-7.65-3.59-7.65-7.74Zm13.59,0v-.04c0-3.42-2.49-6.21-5.93-6.21s-5.89,2.75-5.89,6.17v.04c0,3.42,2.49,6.21,5.94,6.21s5.89-2.75,5.89-6.17Z"/>
        <path class="cls-1" d="m373.26,86.24h6.47c1.85,0,3.33.56,4.28,1.5.73.73,1.16,1.78,1.16,2.97v.04c0,2.49-1.72,3.96-4.09,4.39l4.62,6.15h-2.09l-4.36-5.85h-4.3v5.85h-1.7v-15.05Zm6.32,7.68c2.26,0,3.87-1.16,3.87-3.1v-.04c0-1.85-1.42-2.97-3.85-2.97h-4.64v6.11h4.62Z"/>
        <path class="cls-1" d="m356.71,94.99v-8.75h1.7v8.64c0,3.25,1.74,5.07,4.6,5.07s4.54-1.68,4.54-4.97v-8.75h1.7v8.62c0,4.39-2.52,6.66-6.28,6.66s-6.26-2.28-6.26-6.54Z"/>
        <path class="cls-1" d="m342.54,86.24h10.88v1.55h-9.18v5.14h8.21v1.55h-8.21v5.27h9.29v1.55h-10.99v-15.05Z"/>
        <path class="cls-1" d="m319.28,86.24h5.22c4.73,0,8,3.25,8,7.48v.04c0,4.24-3.27,7.52-8,7.52h-5.22v-15.05Zm1.7,1.57v11.91h3.53c3.81,0,6.24-2.58,6.24-5.91v-.04c0-3.33-2.43-5.96-6.24-5.96h-3.53Z"/>
        <path class="cls-1" d="m302.29,86.24h1.59l9.48,12.06v-12.06h1.65v15.05h-1.35l-9.72-12.34v12.34h-1.65v-15.05Z"/>
        <path class="cls-1" d="m291.25,86.13h1.59l6.86,15.16h-1.83l-1.76-3.98h-8.19l-1.79,3.98h-1.74l6.86-15.16Zm4.19,9.63l-3.42-7.65-3.44,7.65h6.86Z"/>
        <path class="cls-1" d="m262.25,86.24h1.59l9.48,12.06v-12.06h1.65v15.05h-1.35l-9.72-12.34v12.34h-1.65v-15.05Z"/>
        <path class="cls-1" d="m243.74,93.81v-.04c0-4.15,3.12-7.78,7.7-7.78s7.65,3.59,7.65,7.74v.04c0,4.15-3.12,7.78-7.7,7.78s-7.65-3.59-7.65-7.74Zm13.59,0v-.04c0-3.42-2.49-6.21-5.93-6.21s-5.89,2.75-5.89,6.17v.04c0,3.42,2.49,6.21,5.94,6.21s5.89-2.75,5.89-6.17Z"/>
        <path class="cls-1" d="m238.73,86.24h1.7v15.05h-1.7v-15.05Z"/>
        <path class="cls-1" d="m223.83,99.09l1.05-1.25c1.57,1.42,3.07,2.13,5.16,2.13s3.36-1.08,3.36-2.56v-.04c0-1.4-.75-2.19-3.91-2.86-3.46-.75-5.05-1.87-5.05-4.34v-.04c0-2.37,2.09-4.11,4.95-4.11,2.19,0,3.76.62,5.29,1.85l-.99,1.31c-1.4-1.14-2.79-1.63-4.34-1.63-1.96,0-3.2,1.08-3.2,2.43v.04c0,1.42.77,2.21,4.08,2.92,3.36.73,4.9,1.96,4.9,4.26v.04c0,2.58-2.15,4.26-5.14,4.26-2.38,0-4.34-.79-6.15-2.41Z"/>
        <path class="cls-1" d="m218.72,86.24h1.7v15.05h-1.7v-15.05Z"/>
        <path class="cls-1" d="m201.15,86.24h1.89l5.35,12.96,5.37-12.96h1.83l-6.47,15.16h-1.5l-6.47-15.16Z"/>
        <path class="cls-1" d="m184.38,93.81v-.04c0-4.15,3.12-7.78,7.7-7.78s7.65,3.59,7.65,7.74v.04c0,4.15-3.12,7.78-7.7,7.78s-7.65-3.59-7.65-7.74Zm13.59,0v-.04c0-3.42-2.49-6.21-5.93-6.21s-5.89,2.75-5.89,6.17v.04c0,3.42,2.49,6.21,5.93,6.21s5.89-2.75,5.89-6.17Z"/>
        <path class="cls-1" d="m169.5,86.24h6.47c1.85,0,3.33.56,4.28,1.5.73.73,1.16,1.78,1.16,2.97v.04c0,2.49-1.72,3.96-4.08,4.39l4.62,6.15h-2.09l-4.36-5.85h-4.3v5.85h-1.7v-15.05Zm6.32,7.68c2.26,0,3.87-1.16,3.87-3.1v-.04c0-1.85-1.42-2.97-3.85-2.97h-4.64v6.11h4.62Z"/>
        <path class="cls-1" d="m152.95,94.99v-8.75h1.7v8.64c0,3.25,1.74,5.07,4.6,5.07s4.54-1.68,4.54-4.97v-8.75h1.7v8.62c0,4.39-2.52,6.66-6.28,6.66s-6.26-2.28-6.26-6.54Z"/>
        <path class="cls-1" d="m138.78,86.24h10.88v1.55h-9.18v5.14h8.21v1.55h-8.21v5.27h9.29v1.55h-10.99v-15.05Z"/>
        <path class="cls-1" d="m114.81,93.81v-.04c0-4.13,3.03-7.78,7.55-7.78,2.54,0,4.11.73,5.61,2l-1.1,1.29c-1.16-1.01-2.45-1.72-4.58-1.72-3.33,0-5.72,2.82-5.72,6.17v.04c0,3.59,2.3,6.26,5.95,6.26,1.72,0,3.31-.67,4.34-1.5v-3.74h-4.58v-1.53h6.21v6c-1.4,1.25-3.5,2.3-6.04,2.3-4.73,0-7.65-3.44-7.65-7.74Z"/>
        <path class="cls-1" d="m98.49,86.24h1.59l9.48,12.06v-12.06h1.66v15.05h-1.35l-9.72-12.34v12.34h-1.66v-15.05Z"/>
        <path class="cls-1" d="m92.38,86.24h1.7v15.05h-1.7v-15.05Z"/>
        <path class="cls-1" d="m82.28,87.81h-5.05v-1.57h11.82v1.57h-5.05v13.48h-1.72v-13.48Z"/>
        <path class="cls-1" d="m68.82,86.13h1.59l6.86,15.16h-1.83l-1.76-3.98h-8.19l-1.78,3.98h-1.74l6.86-15.16Zm4.19,9.63l-3.42-7.65-3.44,7.65h6.86Z"/>
        <path class="cls-1" d="m47.71,86.24h6.47c1.85,0,3.33.56,4.28,1.5.73.73,1.16,1.78,1.16,2.97v.04c0,2.49-1.72,3.96-4.08,4.39l4.62,6.15h-2.09l-4.36-5.85h-4.3v5.85h-1.7v-15.05Zm6.32,7.68c2.26,0,3.87-1.16,3.87-3.1v-.04c0-1.85-1.42-2.97-3.85-2.97h-4.64v6.11h4.62Z"/>
        <path class="cls-1" d="m33.3,86.24h10.88v1.55h-9.18v5.14h8.21v1.55h-8.21v5.27h9.29v1.55h-10.99v-15.05Z"/>
        <path class="cls-1" d="m18.94,86.24h5.63c3.4,0,5.63,1.81,5.63,4.77v.04c0,3.25-2.71,4.92-5.91,4.92h-3.65v5.31h-1.7v-15.05Zm5.42,8.19c2.49,0,4.13-1.33,4.13-3.31v-.04c0-2.15-1.61-3.27-4.04-3.27h-3.81v6.62h3.72Z"/>
        <path class="cls-1" d="m0,93.81v-.04c0-4.15,3.12-7.78,7.7-7.78s7.65,3.59,7.65,7.74v.04c0,4.15-3.12,7.78-7.7,7.78s-7.65-3.59-7.65-7.74Zm13.59,0v-.04c0-3.42-2.49-6.21-5.93-6.21s-5.89,2.75-5.89,6.17v.04c0,3.42,2.49,6.21,5.93,6.21s5.89-2.75,5.89-6.17Z"/>
        <path class="cls-1" d="m461.58,93.9v-.04c0-4.15,3.12-7.78,7.7-7.78s7.65,3.59,7.65,7.74v.04c0,4.15-3.12,7.78-7.7,7.78s-7.65-3.59-7.65-7.74Zm13.59,0v-.04c0-3.42-2.49-6.21-5.93-6.21s-5.89,2.75-5.89,6.17v.04c0,3.42,2.49,6.21,5.93,6.21s5.89-2.75,5.89-6.17Z"/>
        <path class="cls-1" d="m456.57,86.34h1.7v15.05h-1.7v-15.05Z"/>
      </g>
    </g>
  </g>
</svg>